<svg width="50" height="64" viewBox="0 0 50 64" fill="none" xmlns="http://www.w3.org/2000/svg">
<path d="M43.5368 28.187C41.2479 28.3889 39.6994 30.6106 40.238 32.7649L39.8341 30.9472C39.4302 29.0621 37.6798 27.7157 35.7948 27.9177C33.5058 28.1196 31.9574 30.3413 32.496 32.4956L32.092 30.6779C31.6881 28.7929 29.9377 27.4464 28.0527 27.6484C25.7638 27.8503 24.2154 30.072 24.7539 32.2263L21.1185 16.6076C20.6473 14.5879 18.6276 13.3088 16.608 13.78C14.5883 14.2513 13.3092 16.2709 13.7804 18.2906L20.3107 46.4986C20.378 46.9025 19.9067 47.1718 19.5701 46.9025C17.6851 44.8828 15.3288 42.0553 15.2615 42.0553C13.9824 40.5069 11.6261 40.2376 10.0777 41.5167C8.52931 42.7959 8.26002 45.1521 9.53914 46.7005C9.67378 46.9025 14.319 52.4902 18.291 56.0583C23.3402 60.5689 27.2449 62.3866 29.1299 63.1271C31.0149 63.8677 32.8326 64.137 33.9097 63.935C34.9869 63.6657 43.2002 61.7807 43.2002 61.7807C44.8159 61.3768 46.1624 60.2323 46.7683 58.6839L47.9127 55.789C50.0671 50.2686 50.471 44.075 49.1245 38.0833L47.5761 31.2838C47.1722 29.3314 45.4218 27.985 43.5368 28.187Z" fill="white"/>
<path d="M15.4635 8.93291C16.2713 8.73095 16.7426 7.92308 16.5406 7.18254L15.1269 1.19087C14.9922 0.315683 14.1844 -0.155572 13.3765 0.0463948C12.5686 0.248361 12.0974 1.05623 12.2993 1.79677L13.7131 7.78844C13.8477 8.5963 14.6556 9.06756 15.4635 8.93291Z" fill="white"/>
<path d="M7.92335 13.3088C8.25996 13.5107 8.66389 13.5781 9.06782 13.5107C9.40443 13.4434 9.74104 13.1741 10.0103 12.8375C10.4143 12.1643 10.2123 11.2218 9.53908 10.8179L4.28795 7.5864C3.61473 7.18247 2.67222 7.38444 2.26829 8.05766C1.86435 8.73088 2.06632 9.67339 2.73954 10.0773L7.92335 13.3088Z" fill="white"/>
<path d="M8.86584 19.4352C8.66388 18.6273 7.85601 18.1561 7.11547 18.358L1.1238 19.7718C0.315936 19.9738 -0.155319 20.7816 0.0466476 21.5222C0.248614 22.3301 1.05648 22.8013 1.79702 22.5993L7.78869 21.1856C8.59656 20.9836 9.06781 20.2431 8.86584 19.4352Z" fill="white"/>
<path d="M25.9656 15.4632C26.1676 16.2711 26.9754 16.7423 27.716 16.5404L33.7076 15.1266C34.5155 14.9247 34.9868 14.1168 34.7848 13.3762C34.5828 12.5684 33.775 12.0971 33.0344 12.2991L27.0427 13.7129C26.2349 13.8475 25.7636 14.6554 25.9656 15.4632Z" fill="white"/>
<path d="M23.2056 10.2121C23.5422 10.1447 23.8788 9.87544 24.1481 9.53883L27.3795 4.28771C27.7835 3.61449 27.5815 2.67198 26.9083 2.26804C26.235 1.86411 25.2925 2.06608 24.8886 2.7393L21.5898 7.99042C21.1859 8.66364 21.3879 9.60615 22.0611 10.0101C22.3977 10.2121 22.8016 10.2794 23.2056 10.2121Z" fill="white"/>
</svg>
